<svg width="24" height="24" viewBox="0 0 24 24" fill="none" xmlns="http://www.w3.org/2000/svg">
<path fill-rule="evenodd" clip-rule="evenodd" d="M11.7501 23.5C18.2394 23.5 23.5001 18.2393 23.5001 11.75C23.5001 5.26065 18.2394 0 11.7501 0C10.1874 0 8.66604 0.3056 7.25234 0.89181C5.82662 1.483 4.53191 2.35118 3.44159 3.4415C2.67913 4.20396 2.0253 5.06637 1.49886 6.00364L1.5 2.2499L1.49315 2.14813C1.44349 1.78206 1.1297 1.4999 0.75 1.4999C0.335786 1.4999 0 1.83569 0 2.2499V7.73498L0.00684662 7.83675C0.056509 8.20283 0.370304 8.48498 0.75 8.48498H6.35141L6.45318 8.47813C6.81926 8.42847 7.10141 8.11468 7.10141 7.73498C7.10141 7.32077 6.76562 6.98498 6.35141 6.98498L2.67306 6.98393C3.15349 6.07096 3.77048 5.23393 4.50225 4.50216C5.45394 3.55047 6.58364 2.79294 7.82689 2.27741C9.05925 1.7664 10.3855 1.5 11.7501 1.5C17.411 1.5 22.0001 6.08908 22.0001 11.75C22.0001 17.4109 17.411 22 11.7501 22C8.81722 22 6.08522 20.7626 4.15355 18.6316C3.87536 18.3247 3.40106 18.3015 3.09417 18.5797C2.78728 18.8578 2.76401 19.3321 3.0422 19.639C5.2553 22.0805 8.38936 23.5 11.7501 23.5ZM12.4118 4.68594C12.3621 4.31986 12.0483 4.03771 11.6686 4.03771C11.2544 4.03771 10.9186 4.3735 10.9186 4.78771V11.4392L7.57626 14.7816L7.50364 14.8657C7.28578 15.1593 7.30999 15.576 7.57626 15.8423C7.86915 16.1351 8.34402 16.1351 8.63692 15.8423L12.4186 12.0606V4.78771L12.4118 4.68594Z" fill="#262626"/>
</svg>
