<svg width="25" height="24" viewBox="0 0 25 24" fill="none" xmlns="http://www.w3.org/2000/svg">
<path fill-rule="evenodd" clip-rule="evenodd" d="M3.47888 0.0232165C3.55181 0.0536474 3.60978 0.111621 3.64021 0.184546L4.42357 2.0618L6.45102 2.22672C6.61616 2.24015 6.73914 2.38491 6.72571 2.55005C6.7193 2.62881 6.68208 2.70186 6.62213 2.75334L5.07883 4.07846L5.5485 6.05764C5.58675 6.21885 5.48708 6.38055 5.32587 6.4188C5.24899 6.43705 5.16801 6.42422 5.10053 6.38311L3.36335 5.32483L1.62618 6.38311C1.48468 6.46931 1.3001 6.42448 1.2139 6.28299C1.17279 6.2155 1.15996 6.13453 1.17821 6.05764L1.64788 4.07846L0.104573 2.75334C-0.0211323 2.64541 -0.0355388 2.456 0.0723954 2.3303C0.123872 2.27035 0.196924 2.23312 0.275683 2.22672L2.30313 2.0618L3.08649 0.184546C3.1503 0.0316399 3.32598 -0.0405899 3.47888 0.0232165ZM3.47888 8.77322C3.55181 8.80365 3.60978 8.86162 3.64021 8.93455L4.42357 10.8118L6.45102 10.9767C6.61616 10.9902 6.73914 11.1349 6.72571 11.3001C6.7193 11.3788 6.68208 11.4519 6.62213 11.5033L5.07883 12.8285L5.5485 14.8076C5.58675 14.9689 5.48708 15.1305 5.32587 15.1688C5.24899 15.187 5.16801 15.1742 5.10053 15.1331L3.36335 14.0748L1.62618 15.1331C1.48468 15.2193 1.3001 15.1745 1.2139 15.033C1.17279 14.9655 1.15996 14.8845 1.17821 14.8076L1.64788 12.8285L0.104573 11.5033C-0.0211323 11.3954 -0.0355388 11.206 0.0723954 11.0803C0.123872 11.0203 0.196924 10.9831 0.275683 10.9767L2.30313 10.8118L3.08649 8.93455C3.1503 8.78164 3.32598 8.70941 3.47888 8.77322ZM3.64021 17.6845C3.60978 17.6116 3.55181 17.5536 3.47888 17.5232C3.32598 17.4594 3.1503 17.5316 3.08649 17.6845L2.30313 19.5618L0.275683 19.7267C0.196924 19.7331 0.123872 19.7703 0.0723954 19.8303C-0.0355388 19.956 -0.0211323 20.1454 0.104573 20.2533L1.64788 21.5785L1.17821 23.5576C1.15996 23.6345 1.17279 23.7155 1.2139 23.783C1.3001 23.9245 1.48468 23.9693 1.62618 23.8831L3.36335 22.8248L5.10053 23.8831C5.16801 23.9242 5.24899 23.937 5.32587 23.9188C5.48708 23.8805 5.58675 23.7188 5.5485 23.5576L5.07883 21.5785L6.62213 20.2533C6.68208 20.2019 6.7193 20.1288 6.72571 20.0501C6.73914 19.8849 6.61616 19.7402 6.45102 19.7267L4.42357 19.5618L3.64021 17.6845ZM23.3634 20.2711H9.86335L9.76158 20.2779C9.39551 20.3276 9.11335 20.6414 9.11335 21.0211C9.11335 21.4353 9.44914 21.7711 9.86335 21.7711H23.3634L23.4651 21.7642C23.8312 21.7146 24.1134 21.4008 24.1134 21.0211C24.1134 20.6069 23.7776 20.2711 23.3634 20.2711ZM23.3634 11.5211H9.86335L9.76158 11.5279C9.39551 11.5776 9.11335 11.8914 9.11335 12.2711C9.11335 12.6853 9.44914 13.0211 9.86335 13.0211H23.3634L23.4651 13.0142C23.8312 12.9646 24.1134 12.6508 24.1134 12.2711C24.1134 11.8569 23.7776 11.5211 23.3634 11.5211ZM23.3634 2.77107H9.86335L9.76158 2.77792C9.39551 2.82758 9.11335 3.14138 9.11335 3.52107C9.11335 3.93529 9.44914 4.27107 9.86335 4.27107H23.3634L23.4651 4.26423C23.8312 4.21456 24.1134 3.90077 24.1134 3.52107C24.1134 3.10686 23.7776 2.77107 23.3634 2.77107Z" fill="#262626"/>
</svg>
