<svg width="24" height="18" viewBox="0 0 24 18" fill="none" xmlns="http://www.w3.org/2000/svg">
<path fill-rule="evenodd" clip-rule="evenodd" d="M15.75 0C18.3734 0 20.5 2.12665 20.5 4.75C20.5 7.37335 18.3734 9.5 15.75 9.5C13.1266 9.5 11 7.37335 11 4.75C11 2.12665 13.1266 0 15.75 0ZM4.99315 5.14823C4.94349 4.78215 4.6297 4.5 4.25 4.5L4.14823 4.50685L4.05062 4.52679C3.73318 4.61411 3.5 4.90482 3.5 5.25V8H0.75L0.648229 8.00685C0.282154 8.05651 0 8.3703 0 8.75L0.00684662 8.85177C0.056509 9.21785 0.370304 9.5 0.75 9.5H3.5V12.25L3.50685 12.3518C3.55651 12.7178 3.8703 13 4.25 13L4.35177 12.9932C4.71785 12.9435 5 12.6297 5 12.25V9.5H7.75L7.85177 9.49315C8.21785 9.44349 8.5 9.1297 8.5 8.75L8.49315 8.64823C8.44349 8.28215 8.1297 8 7.75 8H5V5.25L4.99315 5.14823ZM13.25 11L13.0336 11.0044C10.2344 11.1179 8 13.423 8 16.25V17L8.00685 17.1018C8.05651 17.4678 8.3703 17.75 8.75 17.75C9.16421 17.75 9.5 17.4142 9.5 17V16.25L9.5052 16.0508C9.60873 14.0724 11.2457 12.5 13.25 12.5H18.25L18.4492 12.5052C20.4276 12.6087 22 14.2457 22 16.25V17L22.0068 17.1018C22.0565 17.4678 22.3703 17.75 22.75 17.75C23.1642 17.75 23.5 17.4142 23.5 17V16.25L23.4956 16.0336C23.3821 13.2344 21.077 11 18.25 11H13.25ZM12.5 4.75C12.5 2.95507 13.9551 1.5 15.75 1.5C17.5449 1.5 19 2.95507 19 4.75C19 6.54493 17.5449 8 15.75 8C13.9551 8 12.5 6.54493 12.5 4.75Z" fill="#262626"/>
</svg>
