<svg width="24" height="24" viewBox="0 0 24 24" fill="none" xmlns="http://www.w3.org/2000/svg">
<path fill-rule="evenodd" clip-rule="evenodd" d="M15.75 0H18.75C21.3005 0 23.3815 2.01014 23.4951 4.53257L23.5 4.75V7.75C23.5 8.16421 23.1642 8.5 22.75 8.5C22.3703 8.5 22.0565 8.21785 22.0068 7.85177L22 7.75V4.75C22 3.01697 20.6435 1.60075 18.9344 1.50514L18.75 1.5H15.75C15.3358 1.5 15 1.16421 15 0.75C15 0.370304 15.2822 0.056509 15.6482 0.00684662L15.75 0ZM14.25 6.5C15.7688 6.5 17 7.73122 17 9.25V14.25C17 15.7688 15.7688 17 14.25 17H9.25C7.73122 17 6.5 15.7688 6.5 14.25V9.25C6.5 7.73122 7.73122 6.5 9.25 6.5H14.25ZM1.49315 15.6482C1.44349 15.2822 1.1297 15 0.75 15C0.335786 15 0 15.3358 0 15.75V18.75L0.00488786 18.9674C0.11853 21.4899 2.19952 23.5 4.75 23.5H7.75L7.85177 23.4932C8.21785 23.4435 8.5 23.1297 8.5 22.75C8.5 22.3358 8.16421 22 7.75 22H4.75L4.56558 21.9949C2.85645 21.8992 1.5 20.483 1.5 18.75V15.75L1.49315 15.6482ZM23.4932 15.6482C23.4435 15.2822 23.1297 15 22.75 15C22.3358 15 22 15.3358 22 15.75V18.75L21.9949 18.9344C21.8992 20.6435 20.483 22 18.75 22H15.75L15.6482 22.0068C15.2822 22.0565 15 22.3703 15 22.75C15 23.1642 15.3358 23.5 15.75 23.5H18.75L18.9674 23.4951C21.4899 23.3815 23.5 21.3005 23.5 18.75V15.75L23.4932 15.6482ZM9.25 8H14.25C14.9404 8 15.5 8.55964 15.5 9.25V14.25C15.5 14.9404 14.9404 15.5 14.25 15.5H9.25C8.55964 15.5 8 14.9404 8 14.25V9.25C8 8.55964 8.55964 8 9.25 8ZM7.75 0H4.75L4.53257 0.00488786C2.01014 0.11853 0 2.19952 0 4.75V7.75L0.00684662 7.85177C0.056509 8.21785 0.370304 8.5 0.75 8.5C1.16421 8.5 1.5 8.16421 1.5 7.75V4.75L1.50514 4.56558C1.60075 2.85645 3.01697 1.5 4.75 1.5H7.75L7.85177 1.49315C8.21785 1.44349 8.5 1.1297 8.5 0.75C8.5 0.335786 8.16421 0 7.75 0Z" fill="#262626"/>
</svg>
