<svg width="23" height="23" viewBox="0 0 23 23" fill="none" xmlns="http://www.w3.org/2000/svg">
<path fill-rule="evenodd" clip-rule="evenodd" d="M22.75 3.75C22.75 1.67893 21.0711 0 19 0H3.75C1.67893 0 0 1.67893 0 3.75V19C0 21.0711 1.67893 22.75 3.75 22.75H19C21.0711 22.75 22.75 21.0711 22.75 19V3.75ZM3.75 1.5H19C20.2426 1.5 21.25 2.50736 21.25 3.75V19C21.25 20.2426 20.2426 21.25 19 21.25H14.49L14.4909 14.2893H17.4392L17.8807 11.0895H14.4909V8.54659L14.4925 8.42745C14.517 7.56645 14.8279 6.98882 16.1873 6.98882H18V4H15.3586L15.1302 4.00386C12.6414 4.0888 10.9559 5.57175 10.9559 8.22968V11.0895H8V14.2893H10.9559L10.955 21.25H3.75C2.50736 21.25 1.5 20.2426 1.5 19V3.75C1.5 2.50736 2.50736 1.5 3.75 1.5Z" fill="#262626"/>
</svg>
