<svg width="21" height="21" viewBox="0 0 21 21" fill="none" xmlns="http://www.w3.org/2000/svg">
<path fill-rule="evenodd" clip-rule="evenodd" d="M18.9733 18.9088C19.1391 18.7447 19.1395 18.477 18.9744 18.3123L15.2426 14.5919C16.5135 13.178 17.292 11.3194 17.292 9.27208C17.292 4.8711 13.7108 1.30081 9.29638 1.30081C4.88197 1.30081 1.30078 4.8711 1.30078 9.27208C1.30078 13.6731 4.88197 17.2433 9.29638 17.2433C11.3584 17.2433 13.2268 16.4588 14.645 15.1834L18.3807 18.9077C18.5444 19.0709 18.8091 19.0714 18.9733 18.9088ZM2.14242 9.27208C2.14242 5.34099 5.35329 2.13989 9.29638 2.13989C13.2395 2.13989 16.4503 5.34099 16.4503 9.27208C16.4503 13.2032 13.2395 16.4043 9.29638 16.4043C5.35329 16.4043 2.14242 13.2032 2.14242 9.27208Z" fill="#333333" stroke="#333333" stroke-width="0.852466" stroke-linecap="round" stroke-linejoin="round"/>
</svg>
