<svg width="21" height="21" viewBox="0 0 21 21" fill="none" xmlns="http://www.w3.org/2000/svg">
<path fill-rule="evenodd" clip-rule="evenodd" d="M7.29561 2.86179L9.60296 5.74598L9.4871 5.81034H13.3204L10.9615 2.86179H7.29561ZM17.9512 5.81034H15.124L15.2399 5.74598L12.9325 2.86179H15.1761C16.7087 2.86179 17.9512 4.10423 17.9512 5.63686V5.81034ZM7.68345 5.81034L5.33738 2.87776C3.94558 3.02708 2.86176 4.2054 2.86176 5.63685V5.81034H7.68345ZM2.86176 15.1762V7.37131H17.9512V15.1762C17.9512 16.7088 16.7087 17.9512 15.1761 17.9512H5.63682C4.1042 17.9512 2.86176 16.7088 2.86176 15.1762ZM5.63682 1.30081C3.24209 1.30081 1.30078 3.24212 1.30078 5.63685V15.1762C1.30078 17.5709 3.24209 19.5122 5.63682 19.5122H15.1761C17.5709 19.5122 19.5122 17.5709 19.5122 15.1762V5.63686C19.5122 3.24212 17.5709 1.30081 15.1761 1.30081H5.63682ZM13.2249 12.5164C13.5139 12.3495 13.5139 11.9323 13.2249 11.7654L8.67202 9.13683C8.38295 8.96994 8.02161 9.17855 8.02161 9.51234L8.02161 14.7695C8.02161 15.1033 8.38295 15.3119 8.67202 15.145L13.2249 12.5164Z" fill="#333333"/>
</svg>
