<svg width="24" height="24" viewBox="0 0 24 24" fill="none" xmlns="http://www.w3.org/2000/svg">
<path fill-rule="evenodd" clip-rule="evenodd" d="M13.2542 0.251404C13.165 0.0959127 12.9995 0 12.8203 0H10.3857C10.2063 0 10.0407 0.0960805 9.95162 0.251788L9.32559 1.3469C8.10963 1.61312 6.97253 2.09007 5.95449 2.73753L4.74336 2.40961C4.57041 2.36266 4.38556 2.41187 4.25883 2.5386L2.53727 4.26016C2.41043 4.387 2.36126 4.57205 2.40839 4.74512L2.73492 5.94596C2.07956 6.96854 1.59664 8.11224 1.3272 9.33601L0.251404 9.95373C0.0959127 10.0428 0 10.2083 0 10.3875V12.8222C0 13.0016 0.0960805 13.1672 0.251788 13.2563L1.3272 13.8719C1.59664 15.0956 2.07956 16.2393 2.73492 17.2619L2.40961 18.4645C2.36266 18.6375 2.41187 18.8223 2.5386 18.949L4.26016 20.6706C4.387 20.7974 4.57205 20.8466 4.74512 20.7995L5.95449 20.4703C6.97253 21.1178 8.10963 21.5948 9.32559 21.861L9.95373 22.9565C10.0428 23.112 10.2083 23.2079 10.3875 23.2079H12.8222C13.0016 23.2079 13.1672 23.1118 13.2563 22.9561L13.8896 21.8495C15.0916 21.5799 16.2156 21.1042 17.2227 20.4615L18.4645 20.7983C18.6375 20.8452 18.8223 20.796 18.949 20.6693L20.6706 18.9477C20.7974 18.8209 20.8466 18.6358 20.7995 18.4628L20.4594 17.2132C21.0939 16.2111 21.5633 15.0943 21.8296 13.9009L22.9565 13.2542C23.112 13.165 23.2079 12.9995 23.2079 12.8203V10.3857C23.2079 10.2063 23.1118 10.0407 22.9561 9.95162L21.8296 9.30697C21.5632 8.11315 21.0935 6.996 20.4588 5.99373L20.7983 4.74336C20.8452 4.57041 20.796 4.38556 20.6693 4.25883L18.9477 2.53727C18.8209 2.41043 18.6358 2.36126 18.4628 2.40839L17.2227 2.74641C16.2153 2.1035 15.0909 1.62773 13.8886 1.35818L13.2542 0.251404ZM2.60118 11.0061C2.90889 6.31424 6.81197 2.60394 11.5816 2.60394C16.5522 2.60394 20.5816 6.63338 20.5816 11.6039C20.5816 16.5745 16.5522 20.6039 11.5816 20.6039C6.81197 20.6039 2.90889 16.8936 2.60118 12.2018V11.0061Z" fill="#262626"/>
</svg>
